<svg width="23" height="23" viewBox="0 0 23 23" fill="none" xmlns="http://www.w3.org/2000/svg">
<path d="M21.1544 15.0968C19.7463 15.0968 18.3637 14.8766 17.0534 14.4436C16.4114 14.2246 15.6222 14.4255 15.2303 14.828L12.6442 16.7802C9.64506 15.1792 7.79764 13.3324 6.21855 10.3558L8.11335 7.83705C8.60563 7.34543 8.7822 6.62728 8.57065 5.95345C8.13581 4.63634 7.91491 3.25437 7.91491 1.84563C7.91497 0.827938 7.08704 0 6.06941 0H1.84557C0.827938 0 0 0.827938 0 1.84557C0 13.5102 9.48975 22.9999 21.1544 22.9999C22.1721 22.9999 23 22.172 23 21.1544V16.9423C22.9999 15.9248 22.172 15.0968 21.1544 15.0968Z" fill="#4A4A4A"/>
</svg>
